<svg fill="none" height="24" viewBox="0 0 24 24" width="24" xmlns="http://www.w3.org/2000/svg"><path d="m12 1.25c-5.93706 0-10.75 4.81294-10.75 10.75 0 5.9371 4.81294 10.75 10.75 10.75 5.9371 0 10.75-4.8129 10.75-10.75 0-5.93706-4.8129-10.75-10.75-10.75z" fill="#5e94ff"/><g fill="#eceff1"><path d="m12 4.75c-2.48528 0-4.5 2.01472-4.5 4.5 0 2.4853 2.01472 4.5 4.5 4.5 2.4853 0 4.5-2.0147 4.5-4.5 0-2.48528-2.0147-4.5-4.5-4.5z"/><path clip-rule="evenodd" d="m20.25 18.8924v-.3924c0-.3233-.1231-.6122-.2639-.8407-.1449-.235-.3408-.4588-.5632-.6668-.4454-.4165-1.0594-.8276-1.7842-1.19-1.4523-.7261-3.4415-1.3025-5.6387-1.3025-2.19724 0-4.18641.5764-5.63871 1.3025-.7248.3624-1.33876.7735-1.78416 1.19-.22243.208-.41837.4318-.56321.6668-.14083.2285-.26392.5174-.26392.8407v.3924c1.97195 2.3579 4.93584 3.8576 8.25 3.8576 3.3142 0 6.278-1.4997 8.25-3.8576z" fill-rule="evenodd"/></g></svg>